<svg width="94" height="94" viewBox="0 0 94 94" fill="none" xmlns="http://www.w3.org/2000/svg">
<path d="M77.6806 32.6389C77.6806 23.6259 70.3742 16.3195 61.3611 16.3195C55.1554 16.3195 49.7598 19.7839 47 24.8836C44.2402 19.7839 38.8446 16.3195 32.6389 16.3195C23.6259 16.3195 16.3195 23.6259 16.3195 32.6389C16.3195 36.5163 17.6776 40.073 19.9362 42.8728L19.9306 42.8772L47 76.4268L74.0693 42.8773L74.0637 42.8729C76.3224 40.073 77.6806 36.5163 77.6806 32.6389Z" fill="#F5D0DE"/>
<path d="M10.4445 28.7222C10.4445 28.7222 10.4445 16.9722 20.8889 13.0555" stroke="#CE125A" stroke-width="4" stroke-miterlimit="10" stroke-linecap="round" stroke-linejoin="round"/>
<path d="M5.22223 24.8056C5.22223 24.8056 5.22223 13.0556 15.6667 9.13892" stroke="#CE125A" stroke-width="4" stroke-miterlimit="10" stroke-linecap="round" stroke-linejoin="round"/>
<path d="M83.5555 28.7222C83.5555 28.7222 83.5555 16.9722 73.1111 13.0555" stroke="#CE125A" stroke-width="4" stroke-miterlimit="10" stroke-linecap="round" stroke-linejoin="round"/>
<path d="M88.7778 24.8056C88.7778 24.8056 88.7778 13.0556 78.3333 9.13892" stroke="#CE125A" stroke-width="4" stroke-miterlimit="10" stroke-linecap="round" stroke-linejoin="round"/>
<path d="M77.6806 32.6389C77.6806 23.6259 70.3742 16.3195 61.3611 16.3195C55.1554 16.3195 49.7598 19.7839 47 24.8836C44.2402 19.7839 38.8446 16.3195 32.6389 16.3195C23.6259 16.3195 16.3195 23.6259 16.3195 32.6389C16.3195 36.5163 17.6776 40.073 19.9362 42.8728L19.9306 42.8772L47 76.4268L74.0693 42.8773L74.0637 42.8729C76.3224 40.073 77.6806 36.5163 77.6806 32.6389Z" stroke="#CE125A" stroke-width="4" stroke-miterlimit="10" stroke-linejoin="round"/>
</svg>
