<svg width="94" height="94" viewBox="0 0 94 94" fill="none" xmlns="http://www.w3.org/2000/svg">
<path d="M76.9025 73.1111H80.0903C82.2949 73.1111 83.5555 71.7968 83.5555 69.6338V69.14V14.3067H17.0255V31.6408" fill="#EBA0BD"/>
<path d="M77.0277 73.1111H80.1554C82.3186 73.1111 83.5555 71.7968 83.5555 69.6338V69.14V14.3067H18.2777V35.3968" fill="#EBA0BD"/>
<path d="M77.0277 73.1111H80.1554C82.3186 73.1111 83.5555 71.7968 83.5555 69.6338V69.14V14.3067H18.2777" fill="#EBA0BD"/>
<path d="M77.0278 20.8889H11.75V73.1111H77.0278V20.8889Z" fill="#F5D0DE"/>
<path d="M77.0277 73.1111H80.1554C82.3186 73.1111 83.5555 71.7968 83.5555 69.6338V69.14V14.3067H18.2777" stroke="#CE125A" stroke-width="4" stroke-miterlimit="10" stroke-linecap="round" stroke-linejoin="round"/>
<path d="M77.0278 20.8889H11.75V73.1111H77.0278V20.8889Z" stroke="#CE125A" stroke-width="4" stroke-miterlimit="10" stroke-linecap="round" stroke-linejoin="round"/>
<path d="M44.3944 35.3968H18.2777V61.5135H44.3944V35.3968Z" stroke="#CE125A" stroke-width="4" stroke-miterlimit="10" stroke-linecap="round" stroke-linejoin="round"/>
<path d="M18.2777 28.7207H70.4999" stroke="#CE125A" stroke-width="4" stroke-miterlimit="10" stroke-linecap="round" stroke-linejoin="round"/>
<path d="M51.6587 36.7023H70.4999" stroke="#CE125A" stroke-width="4" stroke-miterlimit="10" stroke-linecap="round" stroke-linejoin="round"/>
<path d="M51.6587 45.0145H70.4999" stroke="#CE125A" stroke-width="4" stroke-miterlimit="10" stroke-linecap="round" stroke-linejoin="round"/>
<path d="M51.6587 53.3266H70.4999" stroke="#CE125A" stroke-width="4" stroke-miterlimit="10" stroke-linecap="round" stroke-linejoin="round"/>
<path d="M51.6587 61.6387H70.4999" stroke="#CE125A" stroke-width="4" stroke-miterlimit="10" stroke-linecap="round" stroke-linejoin="round"/>
</svg>
