<svg width="94" height="94" viewBox="0 0 94 94" fill="none" xmlns="http://www.w3.org/2000/svg">
<path d="M69.1944 42.1653H71.6424V77.2522H22.0312V42.1653H24.4792H69.1944Z" fill="#F5D0DE"/>
<path d="M71.0616 42.4214L46.5561 77.0204H71.7631L71.0616 42.4214Z" fill="#EBA0BD"/>
<path d="M60.1392 41.5384L60.4137 37.7497C61.0359 28.6301 54.108 21.1915 46.6868 21.4389C40.5866 21.6423 35.4385 27.0326 33.8555 33.5818L28.5676 32.4034C30.7368 23.6672 37.9923 16.4486 46.5997 16.1779C57.0046 15.8506 66.7181 25.6884 65.8457 37.7496L65.5291 41.5383" fill="#CE125A"/>
<path d="M60.1392 41.5384L60.4137 37.7497C61.0359 28.6301 54.108 21.1915 46.6868 21.4389C40.5866 21.6423 35.4385 27.0326 33.8555 33.5818L28.5676 32.4034C30.7368 23.6672 37.9923 16.4486 46.5997 16.1779C57.0046 15.8506 66.7181 25.6884 65.8457 37.7496L65.5291 41.5383" stroke="#CE125A" stroke-width="2" stroke-miterlimit="10" stroke-linejoin="round"/>
<path d="M69.1944 42.1042H71.6424V77.191H22.0312V42.1042H24.4792H69.1944Z" stroke="#CE125A" stroke-width="4" stroke-miterlimit="10" stroke-linecap="round" stroke-linejoin="round"/>
<path d="M60.4137 37.7496C61.0359 28.6301 54.108 21.1914 46.6868 21.4388C40.5866 21.6422 35.4385 27.0326 33.8555 33.5818L28.5676 32.4034C30.7368 23.6671 37.9923 16.4486 46.5997 16.1778C57.0046 15.8505 66.7181 25.6884 65.8457 37.7495" stroke="#CE125A" stroke-miterlimit="10" stroke-linecap="round" stroke-linejoin="round"/>
</svg>
