<svg width="94" height="94" viewBox="0 0 94 94" fill="none" xmlns="http://www.w3.org/2000/svg">
<path d="M35.2501 47V53.5278L40.4723 58.75H80.9445L87.4723 56.1389L88.7778 50.9167V41.7778L86.1667 36.5556L80.9445 35.25H62.6667V43.0833H78.3334L80.9445 44.3889V50.9167L78.3334 52.2222H45.6945L43.0834 49.6111V47H35.2501Z" fill="#F5D0DE"/>
<path d="M58.75 47V40.4722L53.5278 35.25H13.0556L6.52778 37.8611L5.22223 43.0833V52.2222L7.83334 57.4444L13.0556 58.75H31.3333V50.9167H15.6667L13.0556 49.6111V43.0833L15.6667 41.7778H48.3056L50.9167 44.3889V47H58.75Z" fill="#F5D0DE"/>
<path d="M64.0267 35.25H80.9445C85.2528 35.25 88.7778 38.775 88.7778 43.0833V50.9167C88.7778 55.225 85.2528 58.75 80.9445 58.75H43.0834C38.7751 58.75 35.2501 55.225 35.2501 50.9167V48.3056" stroke="#CE125A" stroke-width="4" stroke-miterlimit="10" stroke-linecap="round" stroke-linejoin="round"/>
<path d="M63.9723 43.0833H78.3336C79.7757 43.0833 80.9447 44.046 80.9447 45.2336V48.7661C80.9447 49.9537 79.7757 50.9164 78.3336 50.9164H45.6947C44.2526 50.9164 43.0836 49.9537 43.0836 48.7661V48.2782" stroke="#CE125A" stroke-width="4" stroke-miterlimit="10" stroke-linecap="round" stroke-linejoin="round"/>
<path d="M30.0124 58.75H13.0556C8.74723 58.75 5.22223 55.225 5.22223 50.9167V43.0833C5.22223 38.775 8.74723 35.25 13.0556 35.25H50.9167C55.225 35.25 58.75 38.775 58.75 43.0833V45.6944" stroke="#CE125A" stroke-width="4" stroke-miterlimit="10" stroke-linecap="round" stroke-linejoin="round"/>
<path d="M30.0278 50.9167H15.6666C14.2245 50.9167 13.0555 49.954 13.0555 48.7665V45.2337C13.0555 44.0462 14.2245 43.0835 15.6666 43.0835H48.3055C49.7476 43.0835 50.9166 44.0462 50.9166 45.2337L50.9167 45.6847" stroke="#CE125A" stroke-width="4" stroke-miterlimit="10" stroke-linecap="round" stroke-linejoin="round"/>
</svg>
