<svg width="94" height="94" viewBox="0 0 94 94" fill="none" xmlns="http://www.w3.org/2000/svg">
<path d="M73.6669 51.1386C73.7061 50.9036 73.7061 50.6686 73.7061 50.4205C73.7061 50.4205 74.1369 22.9647 74.0977 22.56C73.8497 20.0272 71.5911 18.1733 69.0583 18.4214C66.5255 18.6694 64.6716 20.915 64.9197 23.4608L65.8472 40.7218C63.9933 33.3324 58.4833 12.468 58.3658 12.1677C57.478 9.77857 54.8277 8.56441 52.4386 9.45219C50.0494 10.353 48.8483 13.0033 49.7361 15.3925L51.9721 24.211L55.3239 37.4433V37.4302C51.9294 31.738 41.5503 14.2958 41.3414 14.0216C39.8008 11.998 36.9025 11.6064 34.8789 13.1469C32.8552 14.6744 32.4505 17.5727 33.9911 19.5964L40.953 31.525L50.8185 48.5431L42.6339 38.8402C42.425 38.4877 42.1639 38.1744 41.8636 37.9002C41.1455 37.2344 40.2708 36.8427 39.3569 36.7122C38.5866 36.4641 37.7641 36.4119 36.9155 36.5686L23.756 38.4877C23.3383 38.4877 22.9335 38.54 22.5419 38.6444C20.0874 39.3102 18.6383 41.843 19.3041 44.2975C19.9699 46.765 22.5027 48.2141 24.9702 47.5352L36.563 45.838L43.9407 55.1158C42.2103 60.125 42.3107 63.1105 39.6342 64.4913C34.527 62.6904 29.2881 61.9516 29.2881 61.9516V54.9116C29.3403 54.5069 29.3403 54.1022 29.2881 53.6975C28.9486 51.1777 26.6378 49.4022 24.1181 49.7416C21.5853 50.068 19.8097 52.3919 20.1492 54.9116V65.5388L20.2427 65.8296C20.3569 68.3904 21.1718 70.8202 22.2163 71.6035C23.7579 73.4271 26.1645 75.7688 28.6489 78.1971C34.3748 82.5464 42.294 86.1226 48.8952 85.7769C63.3662 85.7769 75.0974 74.0458 75.0974 59.5747C75.0974 56.5878 74.6016 53.8044 73.6818 51.1461" fill="#F5D0DE"/>
<path d="M73.6669 51.1386C73.7061 50.9036 73.7061 50.6686 73.7061 50.4205C73.7061 50.4205 74.1369 22.9647 74.0977 22.56C73.8497 20.0272 71.5911 18.1733 69.0583 18.4214C66.5255 18.6694 64.6716 20.915 64.9197 23.4608L65.8472 40.7218C63.9933 33.3324 58.4833 12.468 58.3658 12.1677C57.478 9.77857 54.8277 8.56441 52.4386 9.45219C50.0494 10.353 48.8483 13.0033 49.7361 15.3925L51.9721 24.211L55.3239 37.4433V37.4302C51.9294 31.738 41.5503 14.2958 41.3414 14.0216C39.8008 11.998 36.9025 11.6064 34.8789 13.1469C32.8552 14.6744 32.4505 17.5727 33.9911 19.5964L40.953 31.5249L50.8185 48.5431L42.6339 38.8402C42.425 38.4877 42.1639 38.1744 41.8636 37.9002C41.1455 37.2344 40.2708 36.8427 39.3569 36.7122C38.5866 36.4641 37.7641 36.4119 36.9155 36.5686L23.756 38.4877C23.3383 38.4877 22.9335 38.54 22.5419 38.6444C20.0874 39.3102 18.6383 41.843 19.3041 44.2975C19.9699 46.765 22.5027 48.2141 24.9702 47.5352L36.563 45.838L43.9407 55.1158C42.2103 60.125 42.3107 63.1105 39.6342 64.4913C34.527 62.6904 29.2881 61.9516 29.2881 61.9516V54.9116C29.3403 54.5069 29.3403 54.1022 29.2881 53.6975C28.9486 51.1777 26.6378 49.4022 24.1181 49.7416C21.5853 50.068 19.8097 52.3919 20.1492 54.9116V65.5388L20.2427 65.8296C20.3569 68.3904 21.1718 70.8202 22.2163 71.6035C23.7579 73.4271 26.1645 75.7688 28.6489 78.1971C34.3748 82.5464 42.294 86.1226 48.8952 85.7769C63.3662 85.7769 75.0974 74.0458 75.0974 59.5747C75.0974 56.5878 74.6016 53.8044 73.6818 51.1461" stroke="#F5D0DE" stroke-width="2.35" stroke-miterlimit="10"/>
<path d="M20.1808 65.5389V54.9117C19.8414 52.392 21.6169 50.0681 24.1497 49.7417C26.6694 49.4022 28.9803 51.1778 29.3197 53.6975C29.3719 54.1022 29.3719 54.507 29.3197 54.9117V61.9516" stroke="#CE125A" stroke-width="4" stroke-linecap="round" stroke-linejoin="round"/>
<path d="M73.7135 51.1463C74.6333 53.8044 75.1292 56.588 75.1292 59.5748C75.1292 74.0459 63.3981 85.7771 48.9269 85.7771C42.3258 86.1228 34.4065 82.5466 28.6806 78.1973C26.1963 75.769 23.7895 73.4273 22.248 71.6037C21.2036 70.8204 20.3887 68.3906 20.2744 65.8298" stroke="#CE125A" stroke-width="4" stroke-linecap="round" stroke-linejoin="round"/>
<path d="M43.9724 55.1159C42.242 60.1251 42.3424 63.1106 39.6659 64.4914C34.5587 62.6905 29.3198 61.9517 29.3198 61.9517" stroke="#CE125A" stroke-width="4" stroke-linecap="round" stroke-linejoin="round"/>
<path d="M36.5948 45.838L25.002 47.5352C22.5345 48.2141 20.0017 46.765 19.3358 44.2975C18.67 41.843 20.1192 39.3102 22.5736 38.6444C22.9653 38.54 23.37 38.4877 23.7878 38.4877L36.9473 36.5686C37.7959 36.4119 38.6184 36.4641 39.3887 36.7122" stroke="#CE125A" stroke-width="4" stroke-linecap="round" stroke-linejoin="round"/>
<path d="M43.9724 55.1159L36.5947 45.8381" stroke="#CE125A" stroke-width="4" stroke-linecap="round" stroke-linejoin="round"/>
<path d="M39.3887 36.7122C40.3026 36.8428 41.1773 37.2344 41.8953 37.9003C42.1956 38.1744 42.4567 38.4878 42.6656 38.8403L50.8503 48.5432" stroke="#CE125A" stroke-width="4" stroke-linecap="round" stroke-linejoin="round"/>
<path d="M40.9846 31.525L34.0227 19.5964C32.4822 17.5728 32.8869 14.6744 34.9105 13.1469C36.9341 11.6064 39.8325 11.998 41.373 14.0216C41.5819 14.2958 51.9611 31.738 55.3555 37.4303V37.4433" stroke="#CE125A" stroke-width="4" stroke-linecap="round" stroke-linejoin="round"/>
<path d="M65.8789 40.7218C64.025 33.3324 58.515 12.468 58.3975 12.1677C57.5097 9.77857 54.8595 8.56441 52.4703 9.45219C50.0811 10.353 48.88 13.0033 49.7678 15.3925L52.0038 24.211" stroke="#CE125A" stroke-width="4" stroke-linecap="round" stroke-linejoin="round"/>
<path d="M64.9514 23.4609C64.7033 20.915 66.5572 18.6695 69.09 18.4214C71.6228 18.1734 73.8814 20.0273 74.1294 22.56C74.1686 22.9648 73.7378 50.4206 73.7378 50.4206C73.7378 50.6686 73.7378 50.9036 73.6986 51.1386" stroke="#CE125A" stroke-width="4" stroke-linecap="round" stroke-linejoin="round"/>
<path d="M54.6055 36.2842L59.2803 43.6668" stroke="#CE125A" stroke-width="4" stroke-linecap="round" stroke-linejoin="round"/>
</svg>
